<?xml version="1.0" encoding="utf-8"?>
<!-- Generator: Adobe Illustrator 23.0.1, SVG Export Plug-In . SVG Version: 6.00 Build 0)  -->
<svg version="1.1" id="Layer_1" xmlns="http://www.w3.org/2000/svg" xmlns:xlink="http://www.w3.org/1999/xlink" x="0px" y="0px"
	 viewBox="0 0 1920 2160" style="enable-background:new 0 0 1920 2160;" xml:space="preserve">
<style type="text/css">
	.st0{fill:#F0F3FA;}
	.st1{clip-path:url(#SVGID_2_);}
	.st2{opacity:0.5;fill:none;stroke:#92A4D4;stroke-width:0.3642;stroke-miterlimit:10;}
	.st3{opacity:0.5;fill:#B6C5E3;}
	.st4{fill:#D1DFF9;}
	.st5{fill:#C4D2EC;}
	.st6{fill:#B6C5E3;}
	.st7{fill:#D5E0F9;}
	.st8{fill:#C8D8F9;}
	.st9{fill-rule:evenodd;clip-rule:evenodd;fill:#181EA9;}
	.st10{fill-rule:evenodd;clip-rule:evenodd;fill:#F0F3FA;}
	.st11{fill:#181EA9;}
	.st12{opacity:0.5;fill:none;stroke:#92A4D4;stroke-width:0.9308;stroke-miterlimit:10;}
	.st13{fill:url(#SVGID_3_);}
	.st14{fill:url(#SVGID_4_);}
	.st15{fill:url(#SVGID_5_);}
	.st16{fill:url(#SVGID_6_);}
	.st17{fill:url(#SVGID_7_);}
	.st18{fill:url(#SVGID_8_);}
	.st19{fill:url(#SVGID_9_);}
	.st20{fill:url(#SVGID_10_);}
	.st21{fill:url(#SVGID_11_);}
	.st22{fill:url(#SVGID_12_);}
	.st23{fill:url(#SVGID_13_);}
	.st24{fill:url(#SVGID_14_);}
	.st25{fill:url(#SVGID_15_);}
	.st26{fill:url(#SVGID_16_);}
	.st27{fill:url(#SVGID_17_);}
	.st28{fill:url(#SVGID_18_);}
	.st29{fill:url(#SVGID_19_);}
	.st30{fill:url(#SVGID_20_);}
	.st31{fill:url(#SVGID_21_);}
	.st32{fill:url(#SVGID_22_);}
	.st33{fill:url(#SVGID_23_);}
	.st34{fill:url(#SVGID_24_);}
	.st35{fill:url(#SVGID_25_);}
	.st36{fill:url(#SVGID_26_);}
	.st37{fill:url(#SVGID_27_);}
	.st38{fill:url(#SVGID_28_);}
	.st39{opacity:0.5;fill:none;}
	.st40{fill:none;stroke:#181EA9;stroke-width:1.5;stroke-miterlimit:10;}
	.st41{fill-rule:evenodd;clip-rule:evenodd;fill:none;stroke:#181EA9;stroke-width:1.5;stroke-miterlimit:10;}
	.st42{fill:none;stroke:#FFFFFF;stroke-width:0.9366;stroke-miterlimit:10;}
	.st43{fill:#FFFFFF;}
	.st44{fill:none;stroke:#1A25A6;stroke-width:2.1014;stroke-miterlimit:10;}
	.st45{fill:#1A25A6;}
	.st46{fill:none;stroke:#181EA9;stroke-width:2.1014;stroke-miterlimit:10;}
	.st47{clip-path:url(#SVGID_30_);}
	.st48{opacity:0.5;fill:none;stroke:#92A4D4;stroke-miterlimit:10;}
	.st49{fill:url(#SVGID_31_);}
	.st50{fill:url(#SVGID_32_);}
	.st51{fill:url(#SVGID_33_);}
	.st52{fill:url(#SVGID_34_);}
	.st53{fill:url(#SVGID_35_);}
	.st54{fill:url(#SVGID_36_);}
	.st55{fill:url(#SVGID_37_);}
	.st56{fill:url(#SVGID_38_);}
	.st57{fill:url(#SVGID_39_);}
	.st58{fill:url(#SVGID_40_);}
	.st59{fill:url(#SVGID_41_);}
	.st60{fill:url(#SVGID_42_);}
	.st61{fill:url(#SVGID_43_);}
	.st62{fill:url(#SVGID_44_);}
	.st63{fill:url(#SVGID_45_);}
	.st64{fill:url(#SVGID_46_);}
	.st65{fill:url(#SVGID_47_);}
	.st66{fill:url(#SVGID_48_);}
	.st67{fill:url(#SVGID_49_);}
	.st68{fill:url(#SVGID_50_);}
	.st69{fill:url(#SVGID_51_);}
	.st70{fill:url(#SVGID_52_);}
	.st71{fill:url(#SVGID_53_);}
	.st72{fill:url(#SVGID_54_);}
	.st73{fill:url(#SVGID_55_);}
	.st74{fill:url(#SVGID_56_);}
</style>
<rect x="0.5" y="0.5" class="st9" width="1920" height="2160"/>
<g>
	<g>
		<path class="st42" d="M500.903,816.353c-51.645,0-93.661,42.017-93.661,93.662s42.016,93.661,93.661,93.661
			s93.661-42.017,93.661-93.661S552.548,816.353,500.903,816.353z M500.903,972.455c-34.429,0-62.44-28.011-62.44-62.441
			s28.011-62.441,62.44-62.441s62.44,28.011,62.44,62.441S535.333,972.455,500.903,972.455z"/>
		<path class="st42" d="M500.903,910.014c-51.645,0-93.661,42.017-93.661,93.661c0,51.645,42.016,93.662,93.661,93.662
			s93.661-42.017,93.661-93.662C594.564,952.031,552.548,910.014,500.903,910.014z M500.903,1066.117
			c-34.429,0-62.44-28.011-62.44-62.441c0-34.43,28.011-62.441,62.44-62.441s62.44,28.011,62.44,62.441
			C563.344,1038.106,535.333,1066.117,500.903,1066.117z"/>
		<path class="st42" d="M500.903,1003.676c-51.645,0-93.661,42.017-93.661,93.662s42.016,93.661,93.661,93.661
			s93.661-42.017,93.661-93.661S552.548,1003.676,500.903,1003.676z M500.903,1159.778c-34.429,0-62.44-28.011-62.44-62.441
			s28.011-62.441,62.44-62.441s62.44,28.011,62.44,62.441S535.333,1159.778,500.903,1159.778z"/>
	</g>
	<g>
		<g>
			<path class="st42" d="M500.903,1128.557c-51.645,0-93.661,42.017-93.661,93.661s42.016,93.661,93.661,93.661
				s93.661-42.017,93.661-93.661S552.548,1128.557,500.903,1128.557z M500.903,1284.66c-34.429,0-62.44-28.011-62.44-62.441
				s28.011-62.441,62.44-62.441s62.44,28.011,62.44,62.441S535.333,1284.66,500.903,1284.66z"/>
		</g>
		<g>
			<path class="st42" d="M688.225,1128.557c-51.644,0-93.661,42.017-93.661,93.661s42.016,93.661,93.661,93.661
				c51.645,0,93.661-42.017,93.661-93.661S739.869,1128.557,688.225,1128.557z M688.225,1284.66
				c-34.429,0-62.44-28.011-62.44-62.441s28.011-62.441,62.44-62.441c34.429,0,62.441,28.011,62.441,62.441
				S722.654,1284.66,688.225,1284.66z"/>
		</g>
		<g>
			<path class="st42" d="M875.546,1128.557c-51.645,0-93.661,42.017-93.661,93.661s42.016,93.661,93.661,93.661
				s93.661-42.017,93.661-93.661S927.191,1128.557,875.546,1128.557z M875.546,1284.66c-34.429,0-62.44-28.011-62.44-62.441
				s28.011-62.441,62.44-62.441s62.44,28.011,62.44,62.441S909.975,1284.66,875.546,1284.66z"/>
		</g>
		<g>
			<path class="st42" d="M1062.868,1128.557c-51.645,0-93.661,42.017-93.661,93.661s42.016,93.661,93.661,93.661
				c51.644,0,93.661-42.017,93.661-93.661S1114.512,1128.557,1062.868,1128.557z M1062.868,1284.66
				c-34.429,0-62.441-28.011-62.441-62.441s28.011-62.441,62.441-62.441c34.429,0,62.44,28.011,62.44,62.441
				S1097.297,1284.66,1062.868,1284.66z"/>
		</g>
		<g>
			<path class="st42" d="M1250.189,1128.557c-51.645,0-93.661,42.017-93.661,93.661s42.016,93.661,93.661,93.661
				s93.661-42.017,93.661-93.661S1301.834,1128.557,1250.189,1128.557z M1250.189,1284.66c-34.429,0-62.44-28.011-62.44-62.441
				s28.011-62.441,62.44-62.441c34.429,0,62.441,28.011,62.441,62.441S1284.619,1284.66,1250.189,1284.66z"/>
		</g>
		<g>
			<path class="st42" d="M1375.07,1128.557c-51.644,0-93.661,42.017-93.661,93.661s42.016,93.661,93.661,93.661
				c51.645,0,93.661-42.017,93.661-93.661S1426.715,1128.557,1375.07,1128.557z M1375.07,1284.66
				c-34.429,0-62.44-28.011-62.44-62.441s28.011-62.441,62.44-62.441c34.429,0,62.441,28.011,62.441,62.441
				S1409.5,1284.66,1375.07,1284.66z"/>
		</g>
	</g>
	<g>
		<g>
			<path class="st43" d="M617.824,720.54c0.308-0.273,0.662-0.588,1.063-0.945s0.804-0.711,1.209-1.064
				c0.45-0.388,0.844-0.745,1.184-1.071c0.339-0.326,0.621-0.643,0.846-0.952c0.225-0.308,0.395-0.619,0.509-0.932
				c0.114-0.313,0.172-0.65,0.172-1.011c0-0.661-0.172-1.154-0.516-1.48c-0.344-0.326-0.833-0.489-1.467-0.489
				c-0.379,0-0.698,0.042-0.958,0.126c-0.261,0.084-0.479,0.201-0.654,0.35c-0.177,0.15-0.32,0.335-0.43,0.555
				c-0.11,0.22-0.21,0.463-0.298,0.727l-0.7-0.145c0.07-0.273,0.176-0.551,0.317-0.833c0.141-0.282,0.33-0.533,0.568-0.753
				c0.237-0.22,0.535-0.401,0.892-0.542c0.357-0.141,0.791-0.211,1.302-0.211c0.441,0,0.833,0.064,1.177,0.192
				c0.344,0.128,0.632,0.309,0.865,0.542c0.233,0.234,0.412,0.509,0.536,0.826c0.123,0.317,0.185,0.661,0.185,1.031
				c0,0.414-0.062,0.802-0.185,1.163c-0.124,0.361-0.311,0.72-0.562,1.077c-0.251,0.357-0.57,0.725-0.958,1.104
				c-0.388,0.379-0.846,0.793-1.374,1.242c-0.273,0.229-0.56,0.474-0.859,0.734c-0.3,0.26-0.582,0.505-0.846,0.734h4.863
				l-0.158,0.74h-5.723V720.54z"/>
			<path class="st43" d="M629.892,711.817h0.951l3.728,9.437h-0.872l-1.137-2.881h-4.441l-1.123,2.881h-0.847L629.892,711.817z
				 M632.271,717.632l-1.943-4.93l-1.916,4.93H632.271z"/>
		</g>
	</g>
	<g>
		<g>
			<path class="st43" d="M498.138,713.984c-0.089-0.255-0.184-0.471-0.284-0.648c-0.102-0.176-0.226-0.322-0.37-0.436
				c-0.146-0.114-0.32-0.196-0.522-0.245c-0.203-0.048-0.445-0.073-0.727-0.073c-0.361,0-0.694,0.064-0.998,0.192
				c-0.305,0.128-0.573,0.352-0.807,0.674c-0.233,0.322-0.421,0.758-0.562,1.308c-0.141,0.551-0.225,1.249-0.251,2.095
				c0.309-0.493,0.678-0.852,1.11-1.077c0.432-0.225,0.938-0.337,1.52-0.337c0.511,0,0.945,0.082,1.302,0.245
				c0.357,0.163,0.644,0.383,0.859,0.661c0.216,0.278,0.372,0.597,0.469,0.958c0.098,0.361,0.146,0.736,0.146,1.123
				c0,0.449-0.072,0.864-0.218,1.242c-0.146,0.379-0.351,0.703-0.614,0.971c-0.265,0.269-0.586,0.478-0.965,0.628
				c-0.379,0.15-0.798,0.225-1.256,0.225c-0.635,0-1.152-0.126-1.553-0.377c-0.401-0.251-0.717-0.577-0.945-0.978
				c-0.229-0.401-0.388-0.85-0.476-1.348c-0.089-0.498-0.133-0.993-0.133-1.487c0-1.092,0.098-1.991,0.291-2.696
				c0.193-0.705,0.447-1.26,0.76-1.665c0.312-0.405,0.672-0.685,1.077-0.839c0.405-0.154,0.819-0.231,1.243-0.231
				c0.802,0,1.396,0.172,1.784,0.515c0.388,0.344,0.656,0.819,0.806,1.427L498.138,713.984z M495.956,720.804
				c0.714,0,1.271-0.211,1.672-0.634c0.401-0.423,0.602-0.996,0.602-1.718c0-0.317-0.035-0.619-0.105-0.905
				c-0.07-0.286-0.185-0.537-0.344-0.753c-0.158-0.216-0.372-0.385-0.641-0.509c-0.27-0.123-0.602-0.185-0.998-0.185
				c-0.309,0-0.608,0.049-0.898,0.145c-0.291,0.097-0.547,0.247-0.767,0.449c-0.221,0.203-0.393,0.461-0.516,0.773
				c-0.124,0.313-0.177,0.681-0.159,1.104c0.009,0.282,0.064,0.555,0.165,0.82c0.102,0.264,0.24,0.502,0.417,0.714
				c0.176,0.211,0.396,0.381,0.661,0.509C495.309,720.741,495.612,720.804,495.956,720.804z"/>
			<path class="st43" d="M505.011,711.817h0.951l3.728,9.437h-0.872l-1.137-2.881h-4.441l-1.123,2.881h-0.847L505.011,711.817z
				 M507.39,717.632l-1.943-4.93l-1.916,4.93H507.39z"/>
		</g>
	</g>
	<g>
		<g>
			<path class="st43" d="M867.586,720.54c0.308-0.273,0.662-0.588,1.063-0.945s0.804-0.711,1.209-1.064
				c0.45-0.388,0.844-0.745,1.184-1.071c0.339-0.326,0.621-0.643,0.846-0.952c0.225-0.308,0.395-0.619,0.509-0.932
				c0.114-0.313,0.172-0.65,0.172-1.011c0-0.661-0.172-1.154-0.516-1.48c-0.344-0.326-0.833-0.489-1.467-0.489
				c-0.379,0-0.698,0.042-0.958,0.126c-0.261,0.084-0.479,0.201-0.654,0.35c-0.177,0.15-0.32,0.335-0.43,0.555
				c-0.11,0.22-0.21,0.463-0.298,0.727l-0.7-0.145c0.07-0.273,0.176-0.551,0.317-0.833c0.141-0.282,0.33-0.533,0.568-0.753
				c0.237-0.22,0.535-0.401,0.892-0.542c0.357-0.141,0.791-0.211,1.302-0.211c0.441,0,0.833,0.064,1.177,0.192
				c0.344,0.128,0.632,0.309,0.865,0.542c0.233,0.234,0.412,0.509,0.536,0.826c0.123,0.317,0.185,0.661,0.185,1.031
				c0,0.414-0.062,0.802-0.185,1.163c-0.124,0.361-0.311,0.72-0.562,1.077c-0.251,0.357-0.57,0.725-0.958,1.104
				c-0.388,0.379-0.846,0.793-1.374,1.242c-0.273,0.229-0.56,0.474-0.859,0.734c-0.3,0.26-0.582,0.505-0.846,0.734h4.863
				l-0.158,0.74h-5.723V720.54z"/>
			<path class="st43" d="M879.653,711.817h0.951l3.728,9.437h-0.872l-1.137-2.881h-4.441l-1.123,2.881h-0.847L879.653,711.817z
				 M882.032,717.632l-1.943-4.93l-1.916,4.93H882.032z"/>
		</g>
	</g>
	<g>
		<g>
			<path class="st43" d="M961.248,720.54c0.308-0.273,0.662-0.588,1.063-0.945s0.804-0.711,1.209-1.064
				c0.45-0.388,0.844-0.745,1.184-1.071c0.339-0.326,0.621-0.643,0.846-0.952c0.225-0.308,0.395-0.619,0.509-0.932
				c0.114-0.313,0.172-0.65,0.172-1.011c0-0.661-0.172-1.154-0.516-1.48c-0.344-0.326-0.833-0.489-1.467-0.489
				c-0.379,0-0.698,0.042-0.958,0.126c-0.261,0.084-0.479,0.201-0.654,0.35c-0.177,0.15-0.32,0.335-0.43,0.555
				c-0.11,0.22-0.21,0.463-0.298,0.727l-0.7-0.145c0.07-0.273,0.176-0.551,0.317-0.833c0.141-0.282,0.33-0.533,0.568-0.753
				c0.237-0.22,0.535-0.401,0.892-0.542c0.357-0.141,0.791-0.211,1.302-0.211c0.441,0,0.833,0.064,1.177,0.192
				c0.344,0.128,0.632,0.309,0.865,0.542c0.233,0.234,0.412,0.509,0.536,0.826c0.123,0.317,0.185,0.661,0.185,1.031
				c0,0.414-0.062,0.802-0.185,1.163c-0.124,0.361-0.311,0.72-0.562,1.077c-0.251,0.357-0.57,0.725-0.958,1.104
				c-0.388,0.379-0.846,0.793-1.374,1.242c-0.273,0.229-0.56,0.474-0.859,0.734c-0.3,0.26-0.582,0.505-0.846,0.734h4.863
				l-0.158,0.74h-5.723V720.54z"/>
			<path class="st43" d="M973.315,711.817h0.951l3.728,9.437h-0.872l-1.137-2.881h-4.441l-1.123,2.881h-0.847L973.315,711.817z
				 M975.694,717.632l-1.943-4.93l-1.916,4.93H975.694z"/>
		</g>
	</g>
	<g>
		<g>
			<path class="st43" d="M921.912,711.817h0.951l3.728,9.437h-0.872l-1.137-2.881h-4.441l-1.123,2.881h-0.847L921.912,711.817z
				 M924.291,717.632l-1.943-4.93l-1.916,4.93H924.291z"/>
		</g>
	</g>
	<g>
		<g>
			<path class="st43" d="M1211.01,720.54c0.308-0.273,0.662-0.588,1.063-0.945s0.804-0.711,1.209-1.064
				c0.45-0.388,0.844-0.745,1.184-1.071c0.339-0.326,0.621-0.643,0.846-0.952c0.225-0.308,0.395-0.619,0.509-0.932
				c0.114-0.313,0.172-0.65,0.172-1.011c0-0.661-0.172-1.154-0.516-1.48c-0.344-0.326-0.833-0.489-1.467-0.489
				c-0.379,0-0.698,0.042-0.958,0.126c-0.261,0.084-0.479,0.201-0.654,0.35c-0.177,0.15-0.32,0.335-0.43,0.555
				c-0.11,0.22-0.21,0.463-0.298,0.727l-0.7-0.145c0.07-0.273,0.176-0.551,0.317-0.833c0.141-0.282,0.33-0.533,0.568-0.753
				c0.237-0.22,0.535-0.401,0.892-0.542c0.357-0.141,0.791-0.211,1.302-0.211c0.441,0,0.833,0.064,1.177,0.192
				c0.344,0.128,0.632,0.309,0.865,0.542c0.233,0.234,0.412,0.509,0.536,0.826c0.123,0.317,0.185,0.661,0.185,1.031
				c0,0.414-0.062,0.802-0.185,1.163c-0.124,0.361-0.311,0.72-0.562,1.077c-0.251,0.357-0.57,0.725-0.958,1.104
				c-0.388,0.379-0.846,0.793-1.374,1.242c-0.273,0.229-0.56,0.474-0.859,0.734c-0.3,0.26-0.582,0.505-0.846,0.734h4.863
				l-0.158,0.74h-5.723V720.54z"/>
			<path class="st43" d="M1223.077,711.817h0.951l3.728,9.437h-0.872l-1.137-2.881h-4.441l-1.123,2.881h-0.847L1223.077,711.817z
				 M1225.456,717.632l-1.943-4.93l-1.916,4.93H1225.456z"/>
		</g>
	</g>
	<g>
		<g>
			<path class="st43" d="M1088.606,713.984c-0.089-0.255-0.184-0.471-0.284-0.648c-0.102-0.176-0.226-0.322-0.37-0.436
				c-0.146-0.114-0.32-0.196-0.522-0.245c-0.203-0.048-0.445-0.073-0.727-0.073c-0.361,0-0.694,0.064-0.998,0.192
				c-0.305,0.128-0.573,0.352-0.807,0.674c-0.233,0.322-0.421,0.758-0.562,1.308c-0.141,0.551-0.225,1.249-0.251,2.095
				c0.309-0.493,0.678-0.852,1.11-1.077c0.432-0.225,0.938-0.337,1.52-0.337c0.511,0,0.945,0.082,1.302,0.245
				c0.357,0.163,0.644,0.383,0.859,0.661c0.216,0.278,0.372,0.597,0.469,0.958c0.098,0.361,0.146,0.736,0.146,1.123
				c0,0.449-0.072,0.864-0.218,1.242c-0.146,0.379-0.351,0.703-0.614,0.971c-0.265,0.269-0.586,0.478-0.965,0.628
				c-0.379,0.15-0.798,0.225-1.256,0.225c-0.635,0-1.152-0.126-1.553-0.377c-0.401-0.251-0.717-0.577-0.945-0.978
				c-0.229-0.401-0.388-0.85-0.476-1.348c-0.089-0.498-0.133-0.993-0.133-1.487c0-1.092,0.098-1.991,0.291-2.696
				c0.193-0.705,0.447-1.26,0.76-1.665c0.312-0.405,0.672-0.685,1.077-0.839c0.405-0.154,0.819-0.231,1.243-0.231
				c0.802,0,1.396,0.172,1.784,0.515c0.388,0.344,0.656,0.819,0.806,1.427L1088.606,713.984z M1086.425,720.804
				c0.714,0,1.271-0.211,1.672-0.634c0.401-0.423,0.602-0.996,0.602-1.718c0-0.317-0.035-0.619-0.105-0.905
				c-0.07-0.286-0.185-0.537-0.344-0.753c-0.158-0.216-0.372-0.385-0.641-0.509c-0.27-0.123-0.602-0.185-0.998-0.185
				c-0.309,0-0.608,0.049-0.898,0.145c-0.291,0.097-0.547,0.247-0.767,0.449c-0.221,0.203-0.393,0.461-0.516,0.773
				c-0.124,0.313-0.177,0.681-0.159,1.104c0.009,0.282,0.064,0.555,0.165,0.82c0.102,0.264,0.24,0.502,0.417,0.714
				c0.176,0.211,0.396,0.381,0.661,0.509C1085.777,720.741,1086.081,720.804,1086.425,720.804z"/>
			<path class="st43" d="M1095.479,711.817h0.951l3.728,9.437h-0.872l-1.137-2.881h-4.441l-1.123,2.881h-0.847L1095.479,711.817z
				 M1097.858,717.632l-1.943-4.93l-1.916,4.93H1097.858z"/>
		</g>
	</g>
	<g>
		<g>
			<path class="st43" d="M1351.771,721.254c0.432-1.463,0.928-2.89,1.487-4.282c0.56-1.392,1.209-2.767,1.949-4.124h-5.247v-0.727
				h6.093v0.727c-0.723,1.348-1.37,2.718-1.942,4.11c-0.573,1.392-1.058,2.824-1.454,4.296H1351.771z"/>
			<path class="st43" d="M1362.411,711.817h0.951l3.728,9.437h-0.872l-1.137-2.881h-4.441l-1.123,2.881h-0.847L1362.411,711.817z
				 M1364.79,717.632l-1.943-4.93l-1.916,4.93H1364.79z"/>
		</g>
	</g>
	<g>
		<path class="st43" d="M1168.453,1417.755c-1.031,0-1.833-0.385-2.405-1.156c-0.573-0.771-0.859-1.985-0.859-3.641
			c0-0.828,0.077-1.546,0.231-2.154c0.154-0.608,0.377-1.11,0.667-1.507c0.291-0.396,0.642-0.689,1.051-0.879
			c0.41-0.189,0.866-0.284,1.368-0.284c0.511,0,0.967,0.095,1.368,0.284c0.401,0.19,0.74,0.482,1.018,0.879s0.491,0.899,0.642,1.507
			c0.149,0.608,0.225,1.326,0.225,2.154c0,0.828-0.075,1.544-0.225,2.148c-0.15,0.604-0.366,1.102-0.648,1.494
			c-0.281,0.392-0.627,0.683-1.037,0.872S1168.973,1417.755,1168.453,1417.755z M1168.479,1417.041c0.449,0,0.828-0.093,1.137-0.278
			s0.56-0.451,0.754-0.8c0.193-0.348,0.332-0.775,0.416-1.282c0.084-0.507,0.125-1.082,0.125-1.725c0-0.634-0.041-1.205-0.125-1.712
			c-0.084-0.507-0.223-0.936-0.416-1.289c-0.194-0.352-0.445-0.623-0.754-0.813c-0.309-0.189-0.688-0.284-1.137-0.284
			s-0.83,0.095-1.144,0.284c-0.312,0.19-0.565,0.461-0.76,0.813c-0.193,0.353-0.332,0.782-0.416,1.289
			c-0.084,0.507-0.126,1.077-0.126,1.712c0,0.643,0.042,1.218,0.126,1.725c0.084,0.507,0.223,0.934,0.416,1.282
			c0.194,0.348,0.447,0.615,0.76,0.8C1167.649,1416.948,1168.03,1417.041,1168.479,1417.041z"/>
		<path class="st43" d="M1174.533,1416.287h0.991v1.229h-0.991V1416.287z"/>
		<path class="st43" d="M1181.551,1417.755c-1.031,0-1.833-0.385-2.405-1.156c-0.573-0.771-0.859-1.985-0.859-3.641
			c0-0.828,0.077-1.546,0.231-2.154c0.154-0.608,0.377-1.11,0.667-1.507c0.291-0.396,0.642-0.689,1.051-0.879
			c0.41-0.189,0.866-0.284,1.368-0.284c0.511,0,0.967,0.095,1.368,0.284c0.401,0.19,0.74,0.482,1.018,0.879s0.491,0.899,0.642,1.507
			c0.149,0.608,0.225,1.326,0.225,2.154c0,0.828-0.075,1.544-0.225,2.148c-0.15,0.604-0.366,1.102-0.648,1.494
			c-0.281,0.392-0.627,0.683-1.037,0.872S1182.07,1417.755,1181.551,1417.755z M1181.577,1417.041c0.449,0,0.828-0.093,1.137-0.278
			s0.56-0.451,0.754-0.8c0.193-0.348,0.332-0.775,0.416-1.282c0.084-0.507,0.125-1.082,0.125-1.725c0-0.634-0.041-1.205-0.125-1.712
			c-0.084-0.507-0.223-0.936-0.416-1.289c-0.194-0.352-0.445-0.623-0.754-0.813c-0.309-0.189-0.688-0.284-1.137-0.284
			s-0.83,0.095-1.144,0.284c-0.312,0.19-0.565,0.461-0.76,0.813c-0.193,0.353-0.332,0.782-0.416,1.289
			c-0.084,0.507-0.126,1.077-0.126,1.712c0,0.643,0.042,1.218,0.126,1.725c0.084,0.507,0.223,0.934,0.416,1.282
			c0.194,0.348,0.447,0.615,0.76,0.8C1180.747,1416.948,1181.128,1417.041,1181.577,1417.041z"/>
		<path class="st43" d="M1188.517,1415.362c0.062,0.3,0.146,0.555,0.251,0.767c0.105,0.212,0.249,0.386,0.43,0.522
			c0.181,0.137,0.396,0.238,0.647,0.304c0.251,0.066,0.553,0.099,0.905,0.099c0.67,0,1.194-0.196,1.573-0.588
			c0.379-0.392,0.568-1.002,0.568-1.831c0-0.317-0.038-0.615-0.112-0.892c-0.075-0.278-0.196-0.518-0.363-0.72
			c-0.168-0.203-0.386-0.361-0.654-0.476c-0.27-0.115-0.593-0.172-0.972-0.172c-0.458,0-0.859,0.068-1.203,0.205
			c-0.344,0.137-0.656,0.355-0.938,0.654h-0.688l0.384-4.851h4.811v0.727h-4.176l-0.291,3.344c0.158-0.123,0.314-0.231,0.469-0.324
			s0.317-0.17,0.489-0.231c0.172-0.062,0.359-0.108,0.562-0.139c0.203-0.031,0.437-0.046,0.701-0.046
			c0.493,0,0.914,0.077,1.262,0.231c0.349,0.154,0.635,0.364,0.859,0.628c0.225,0.264,0.39,0.571,0.495,0.919
			c0.106,0.348,0.159,0.72,0.159,1.117c0,0.511-0.068,0.963-0.205,1.355c-0.137,0.392-0.333,0.72-0.588,0.985
			c-0.256,0.264-0.564,0.465-0.926,0.601c-0.361,0.136-0.767,0.205-1.216,0.205c-0.916,0-1.619-0.205-2.107-0.615
			c-0.489-0.41-0.778-1.002-0.866-1.778H1188.517z"/>
		<path class="st43" d="M1199.857,1408.08h0.951l3.728,9.437h-0.872l-1.137-2.881h-4.441l-1.123,2.881h-0.847L1199.857,1408.08z
			 M1202.236,1413.895l-1.943-4.93l-1.916,4.93H1202.236z"/>
	</g>
	<g>
		<path class="st43" d="M609.611,1417.755c-1.031,0-1.833-0.385-2.405-1.156c-0.573-0.771-0.859-1.985-0.859-3.641
			c0-0.828,0.077-1.546,0.231-2.154c0.154-0.608,0.377-1.11,0.667-1.507c0.291-0.396,0.642-0.689,1.051-0.879
			c0.41-0.189,0.866-0.284,1.368-0.284c0.511,0,0.967,0.095,1.368,0.284c0.401,0.19,0.74,0.482,1.018,0.879s0.491,0.899,0.642,1.507
			c0.149,0.608,0.225,1.326,0.225,2.154c0,0.828-0.075,1.544-0.225,2.148c-0.15,0.604-0.366,1.102-0.648,1.494
			c-0.281,0.392-0.627,0.683-1.037,0.872S610.131,1417.755,609.611,1417.755z M609.638,1417.041c0.449,0,0.828-0.093,1.137-0.278
			s0.56-0.451,0.754-0.8c0.193-0.348,0.332-0.775,0.416-1.282c0.084-0.507,0.125-1.082,0.125-1.725c0-0.634-0.041-1.205-0.125-1.712
			c-0.084-0.507-0.223-0.936-0.416-1.289c-0.194-0.352-0.445-0.623-0.754-0.813c-0.309-0.189-0.688-0.284-1.137-0.284
			s-0.83,0.095-1.144,0.284c-0.312,0.19-0.565,0.461-0.76,0.813c-0.193,0.353-0.332,0.782-0.416,1.289
			c-0.084,0.507-0.126,1.077-0.126,1.712c0,0.643,0.042,1.218,0.126,1.725c0.084,0.507,0.223,0.934,0.416,1.282
			c0.194,0.348,0.447,0.615,0.76,0.8C608.808,1416.948,609.188,1417.041,609.638,1417.041z"/>
		<path class="st43" d="M615.691,1416.287h0.991v1.229h-0.991V1416.287z"/>
		<path class="st43" d="M622.895,1409.19l-2.287,1.388l-0.33-0.595l2.617-1.599h0.793v9.133h-0.793V1409.19z"/>
		<path class="st43" d="M631.855,1417.755c-1.031,0-1.833-0.385-2.405-1.156c-0.573-0.771-0.859-1.985-0.859-3.641
			c0-0.828,0.077-1.546,0.231-2.154c0.154-0.608,0.377-1.11,0.667-1.507c0.291-0.396,0.642-0.689,1.051-0.879
			c0.41-0.189,0.866-0.284,1.368-0.284c0.511,0,0.967,0.095,1.368,0.284c0.401,0.19,0.74,0.482,1.018,0.879s0.491,0.899,0.642,1.507
			c0.149,0.608,0.225,1.326,0.225,2.154c0,0.828-0.075,1.544-0.225,2.148c-0.15,0.604-0.366,1.102-0.648,1.494
			c-0.281,0.392-0.627,0.683-1.037,0.872S632.375,1417.755,631.855,1417.755z M631.882,1417.041c0.449,0,0.828-0.093,1.137-0.278
			s0.56-0.451,0.754-0.8c0.193-0.348,0.332-0.775,0.416-1.282c0.084-0.507,0.125-1.082,0.125-1.725c0-0.634-0.041-1.205-0.125-1.712
			c-0.084-0.507-0.223-0.936-0.416-1.289c-0.194-0.352-0.445-0.623-0.754-0.813c-0.309-0.189-0.688-0.284-1.137-0.284
			s-0.83,0.095-1.144,0.284c-0.312,0.19-0.565,0.461-0.76,0.813c-0.193,0.353-0.332,0.782-0.416,1.289
			c-0.084,0.507-0.126,1.077-0.126,1.712c0,0.643,0.042,1.218,0.126,1.725c0.084,0.507,0.223,0.934,0.416,1.282
			c0.194,0.348,0.447,0.615,0.76,0.8C631.052,1416.948,631.433,1417.041,631.882,1417.041z"/>
		<path class="st43" d="M641.016,1408.08h0.951l3.728,9.437h-0.872l-1.137-2.881h-4.441l-1.123,2.881h-0.847L641.016,1408.08z
			 M643.395,1413.895l-1.943-4.93l-1.916,4.93H643.395z"/>
	</g>
	<g>
		<path class="st43" d="M1603.719,895.519c0-1.031,0.386-1.833,1.157-2.406c0.771-0.573,1.984-0.859,3.641-0.859
			c0.828,0,1.547,0.077,2.154,0.231c0.608,0.154,1.11,0.377,1.507,0.667s0.689,0.641,0.879,1.051
			c0.189,0.41,0.284,0.866,0.284,1.368c0,0.511-0.095,0.967-0.284,1.368c-0.189,0.401-0.482,0.74-0.879,1.018
			c-0.396,0.278-0.898,0.491-1.507,0.641c-0.607,0.15-1.326,0.225-2.154,0.225s-1.544-0.075-2.147-0.225
			c-0.604-0.15-1.102-0.366-1.493-0.648c-0.393-0.282-0.684-0.628-0.873-1.037C1603.813,896.504,1603.719,896.039,1603.719,895.519z
			 M1604.433,895.545c0,0.449,0.093,0.828,0.277,1.137c0.186,0.308,0.452,0.559,0.8,0.753c0.349,0.194,0.775,0.332,1.282,0.416
			c0.507,0.084,1.082,0.126,1.725,0.126c0.635,0,1.205-0.042,1.712-0.126c0.507-0.084,0.937-0.223,1.289-0.416
			c0.352-0.194,0.623-0.445,0.812-0.753c0.189-0.309,0.284-0.687,0.284-1.137c0-0.449-0.095-0.831-0.284-1.143
			c-0.189-0.313-0.461-0.566-0.812-0.76c-0.353-0.194-0.782-0.333-1.289-0.416c-0.507-0.084-1.077-0.126-1.712-0.126
			c-0.643,0-1.218,0.042-1.725,0.126c-0.507,0.084-0.934,0.222-1.282,0.416c-0.348,0.194-0.614,0.447-0.8,0.76
			C1604.525,894.715,1604.433,895.096,1604.433,895.545z"/>
		<path class="st43" d="M1605.187,901.599v0.991h-1.229v-0.991H1605.187z"/>
		<path class="st43" d="M1612.284,908.802l-1.388-2.287l0.595-0.33l1.599,2.617v0.793h-9.133v-0.793H1612.284z"/>
		<path class="st43" d="M1606.111,915.582c-0.3,0.062-0.555,0.145-0.767,0.251c-0.211,0.106-0.386,0.249-0.522,0.43
			c-0.136,0.18-0.237,0.396-0.304,0.648c-0.065,0.251-0.099,0.553-0.099,0.905c0,0.67,0.195,1.194,0.588,1.573
			c0.392,0.379,1.002,0.568,1.83,0.568c0.317,0,0.615-0.038,0.893-0.112c0.277-0.075,0.518-0.196,0.721-0.364
			c0.202-0.167,0.361-0.385,0.476-0.654c0.114-0.269,0.172-0.593,0.172-0.971c0-0.458-0.068-0.859-0.205-1.203
			s-0.354-0.657-0.654-0.938v-0.687l4.851,0.383v4.811h-0.727v-4.177l-3.344-0.291c0.123,0.159,0.231,0.315,0.323,0.469
			c0.093,0.154,0.17,0.317,0.231,0.489c0.062,0.172,0.107,0.359,0.139,0.562c0.031,0.203,0.047,0.436,0.047,0.7
			c0,0.493-0.078,0.914-0.231,1.262c-0.154,0.348-0.363,0.635-0.628,0.859c-0.265,0.225-0.57,0.39-0.919,0.496
			c-0.348,0.106-0.72,0.159-1.116,0.159c-0.512,0-0.963-0.068-1.355-0.205c-0.392-0.137-0.72-0.333-0.984-0.588
			c-0.265-0.256-0.465-0.564-0.602-0.925c-0.137-0.361-0.205-0.767-0.205-1.216c0-0.917,0.205-1.619,0.615-2.108
			c0.409-0.489,1.002-0.778,1.777-0.866V915.582z"/>
		<path class="st43" d="M1613.395,926.922v0.952l-9.438,3.727v-0.872l2.881-1.137v-4.441l-2.881-1.123v-0.846L1613.395,926.922z
			 M1607.578,929.302l4.931-1.943l-4.931-1.917V929.302z"/>
	</g>
	<g>
		<path class="st43" d="M1603.719,1078.159c0-1.031,0.386-1.833,1.157-2.406c0.771-0.573,1.984-0.859,3.641-0.859
			c0.828,0,1.547,0.077,2.154,0.231c0.608,0.154,1.11,0.377,1.507,0.667s0.689,0.641,0.879,1.051
			c0.189,0.41,0.284,0.866,0.284,1.368c0,0.511-0.095,0.967-0.284,1.368c-0.189,0.401-0.482,0.74-0.879,1.018
			c-0.396,0.278-0.898,0.491-1.507,0.641c-0.607,0.15-1.326,0.225-2.154,0.225s-1.544-0.075-2.147-0.225
			c-0.604-0.15-1.102-0.366-1.493-0.648c-0.393-0.282-0.684-0.628-0.873-1.037
			C1603.813,1079.143,1603.719,1078.679,1603.719,1078.159z M1604.433,1078.185c0,0.449,0.093,0.828,0.277,1.137
			c0.186,0.308,0.452,0.559,0.8,0.753c0.349,0.194,0.775,0.332,1.282,0.416c0.507,0.084,1.082,0.126,1.725,0.126
			c0.635,0,1.205-0.042,1.712-0.126c0.507-0.084,0.937-0.223,1.289-0.416c0.352-0.194,0.623-0.445,0.812-0.753
			c0.189-0.309,0.284-0.687,0.284-1.137c0-0.449-0.095-0.831-0.284-1.143c-0.189-0.313-0.461-0.566-0.812-0.76
			c-0.353-0.194-0.782-0.333-1.289-0.416c-0.507-0.084-1.077-0.126-1.712-0.126c-0.643,0-1.218,0.042-1.725,0.126
			c-0.507,0.084-0.934,0.222-1.282,0.416c-0.348,0.194-0.614,0.447-0.8,0.76C1604.525,1077.355,1604.433,1077.736,1604.433,1078.185
			z"/>
		<path class="st43" d="M1605.187,1084.239v0.991h-1.229v-0.991H1605.187z"/>
		<path class="st43" d="M1612.284,1091.442l-1.388-2.287l0.595-0.33l1.599,2.617v0.793h-9.133v-0.793H1612.284z"/>
		<path class="st43" d="M1606.111,1098.222c-0.3,0.062-0.555,0.145-0.767,0.251c-0.211,0.106-0.386,0.249-0.522,0.43
			c-0.136,0.18-0.237,0.396-0.304,0.648c-0.065,0.251-0.099,0.553-0.099,0.905c0,0.67,0.195,1.194,0.588,1.573
			c0.392,0.379,1.002,0.568,1.83,0.568c0.317,0,0.615-0.038,0.893-0.112c0.277-0.075,0.518-0.196,0.721-0.364
			c0.202-0.167,0.361-0.385,0.476-0.654c0.114-0.269,0.172-0.593,0.172-0.971c0-0.458-0.068-0.859-0.205-1.203
			s-0.354-0.657-0.654-0.938v-0.687l4.851,0.383v4.811h-0.727v-4.177l-3.344-0.291c0.123,0.159,0.231,0.315,0.323,0.469
			c0.093,0.154,0.17,0.317,0.231,0.489c0.062,0.172,0.107,0.359,0.139,0.562c0.031,0.203,0.047,0.436,0.047,0.7
			c0,0.493-0.078,0.914-0.231,1.262c-0.154,0.348-0.363,0.635-0.628,0.859c-0.265,0.225-0.57,0.39-0.919,0.496
			c-0.348,0.106-0.72,0.159-1.116,0.159c-0.512,0-0.963-0.068-1.355-0.205c-0.392-0.137-0.72-0.333-0.984-0.588
			c-0.265-0.256-0.465-0.564-0.602-0.925c-0.137-0.361-0.205-0.767-0.205-1.216c0-0.917,0.205-1.619,0.615-2.108
			c0.409-0.489,1.002-0.778,1.777-0.866V1098.222z"/>
		<path class="st43" d="M1613.395,1109.562v0.952l-9.438,3.727v-0.872l2.881-1.137v-4.441l-2.881-1.123v-0.846L1613.395,1109.562z
			 M1607.578,1111.941l4.931-1.943l-4.931-1.917V1111.941z"/>
	</g>
	<g>
		<path class="st43" d="M492.573,758.443l4.454-6.093h0.806v6.093h1.309l-0.146,0.648h-1.163v2.392h-0.767v-2.392h-4.493V758.443z
			 M497.066,758.443v-5.062l-3.661,5.062H497.066z"/>
		<path class="st43" d="M505.011,752.046h0.951l3.728,9.437h-0.872l-1.137-2.881h-4.441l-1.123,2.881h-0.847L505.011,752.046z
			 M507.39,757.862l-1.943-4.93l-1.916,4.93H507.39z"/>
	</g>
	<rect x="938.5" y="816.5" class="st42" width="31" height="500"/>
	<polyline class="st42" points="969,1316.5 1000.5,1316.5 1000.5,816.5 969,816.5 	"/>
	<polyline class="st42" points="1000,1316.5 1031.5,1316.5 1031.5,816.5 1000,816.5 	"/>
	<polyline class="st42" points="1031,1316.5 1062.5,1316.5 1062.5,816.5 1031,816.5 	"/>
	<polyline class="st42" points="1063,1316.5 1094.5,1316.5 1094.5,816.5 1063,816.5 	"/>
	<polyline class="st42" points="1094,1316.5 1125.5,1316.5 1125.5,816.5 1094,816.5 	"/>
	<polyline class="st42" points="1125,1316.5 1156.5,1316.5 1156.5,816.5 1125,816.5 	"/>
	<polyline class="st42" points="1156,1316.5 1187.5,1316.5 1187.5,816.5 1156,816.5 	"/>
	<polyline class="st42" points="1187,1316.5 1218.5,1316.5 1218.5,816.5 1187,816.5 	"/>
	<polyline class="st42" points="1219,1316.5 1250.5,1316.5 1250.5,816.5 1219,816.5 	"/>
	<polyline class="st42" points="1250,1316.5 1281.5,1316.5 1281.5,816.5 1250,816.5 	"/>
	<polyline class="st42" points="1281,1316.5 1312.5,1316.5 1312.5,816.5 1281,816.5 	"/>
	<polyline class="st42" points="1312,1316.5 1343.5,1316.5 1343.5,816.5 1312,816.5 	"/>
	<polyline class="st42" points="1344,1316.5 1375.5,1316.5 1375.5,816.5 1344,816.5 	"/>
	<polyline class="st42" points="1375,1316.5 1406.5,1316.5 1406.5,816.5 1375,816.5 	"/>
	<polyline class="st42" points="1406,1316.5 1437.5,1316.5 1437.5,816.5 1406,816.5 	"/>
	<polyline class="st42" points="1437,1316.5 1468.5,1316.5 1468.5,816.5 1437,816.5 	"/>
	<rect x="407.5" y="816.5" class="st42" width="31" height="500"/>
	<polyline class="st42" points="438,1316.5 469.5,1316.5 469.5,816.5 438,816.5 	"/>
	<polyline class="st42" points="469,1316.5 500.5,1316.5 500.5,816.5 469,816.5 	"/>
	<polyline class="st42" points="501,1316.5 532.5,1316.5 532.5,816.5 501,816.5 	"/>
	<polyline class="st42" points="532,1316.5 563.5,1316.5 563.5,816.5 532,816.5 	"/>
	<polyline class="st42" points="563,1316.5 594.5,1316.5 594.5,816.5 563,816.5 	"/>
	<polyline class="st42" points="594,1316.5 625.5,1316.5 625.5,816.5 594,816.5 	"/>
	<polyline class="st42" points="626,1316.5 657.5,1316.5 657.5,816.5 626,816.5 	"/>
	<polyline class="st42" points="657,1316.5 688.5,1316.5 688.5,816.5 657,816.5 	"/>
	<polyline class="st42" points="688,1316.5 719.5,1316.5 719.5,816.5 688,816.5 	"/>
	<polyline class="st42" points="719,1316.5 750.5,1316.5 750.5,816.5 719,816.5 	"/>
	<polyline class="st42" points="750,1316.5 781.5,1316.5 781.5,816.5 750,816.5 	"/>
	<polyline class="st42" points="782,1316.5 813.5,1316.5 813.5,816.5 782,816.5 	"/>
	<polyline class="st42" points="813,1316.5 844.5,1316.5 844.5,816.5 813,816.5 	"/>
	<polyline class="st42" points="844,1316.5 875.5,1316.5 875.5,816.5 844,816.5 	"/>
	<polyline class="st42" points="875,1316.5 906.5,1316.5 906.5,816.5 875,816.5 	"/>
	<line class="st42" x1="938" y1="816.5" x2="907" y2="816.5"/>
	<line class="st42" x1="907" y1="1315.5" x2="938" y2="1315.5"/>
	<g>
		<path class="st43" d="M750.665,910.014c-51.645,0-93.661,42.017-93.661,93.661c0,51.645,42.016,93.662,93.661,93.662
			c51.644,0,93.661-42.017,93.661-93.662C844.326,952.031,802.31,910.014,750.665,910.014z M750.665,1066.117
			c-34.429,0-62.441-28.011-62.441-62.441c0-34.43,28.011-62.441,62.441-62.441c34.429,0,62.44,28.011,62.44,62.441
			C813.106,1038.106,785.095,1066.117,750.665,1066.117z"/>
		<rect x="907" y="816" class="st43" width="31" height="276"/>
		<polygon class="st43" points="1250,915 1250,1093 1282,1093 1282,946 1344,946 1344,1093 1375,1093 1375,946 1437,946 1437,1093 
			1469,1093 1469,915 		"/>
		<path class="st43" d="M599.142,882.256l-44.803,45.121c-15.197-10.908-33.759-17.355-53.798-17.363
			c-51.44-0.022-93.181,42.484-93.04,93.924c0.127,46.208,33.658,84.631,77.5,92.073v33.872
			c-45.509,7.725-79.908,48.832-77.368,97.376c2.509,47.95,41.198,86.67,89.177,88.549c52.954,2.074,96.691-40.711,96.691-93.589
			c0-46.325-33.575-84.879-77.5-92.336v-33.872c43.925-7.456,77.5-46.011,77.5-92.336c0-20.198-6.402-38.906-17.241-54.221
			l44.803-45.121L599.142,882.256z M563.343,1222.219c0,34.43-28.011,62.441-62.441,62.441c-34.429,0-62.441-28.011-62.441-62.441
			c0-34.43,28.011-62.441,62.441-62.441S563.343,1187.789,563.343,1222.219z M500.902,1066.116
			c-34.429,0-62.441-28.011-62.441-62.441s28.011-62.441,62.441-62.441c34.429,0,62.44,28.011,62.44,62.441
			S535.331,1066.116,500.902,1066.116z"/>
		<path class="st43" d="M1095.461,910.289c-26.552,0-50.623,9.718-67.779,27.364c-16.689,17.167-25.882,40.712-25.882,66.298
			c0,25.731,8.956,49.248,25.219,66.217c17.206,17.954,40.873,27.444,68.442,27.444c29.644,0,60.384-14.429,76.49-35.904
			l-24.976-18.732c-10.34,13.786-31.524,23.415-51.513,23.415c-32.444,0-55.64-18.935-61.172-48.392H1186v-15.61
			c0-24.854-8.788-47.854-24.745-64.764C1144.62,919.998,1121.255,910.289,1095.461,910.289z M1035.227,987
			c6.726-27.343,29.703-45.27,60.422-45.27c29.595,0,51.626,17.974,57.663,45.27H1035.227z"/>
	</g>
	<line class="st42" x1="657.5" y1="707" x2="657.5" y2="816"/>
	<line class="st42" x1="1186.5" y1="816" x2="1186.5" y2="1381"/>
	<line class="st42" x1="1000.5" y1="1316" x2="1000.5" y2="1381"/>
	<line class="st42" x1="1187.5" y1="1316" x2="1187.5" y2="1381"/>
	<g>
		<path class="st43" d="M982.692,1417.755c-1.031,0-1.833-0.385-2.405-1.156c-0.573-0.771-0.859-1.985-0.859-3.641
			c0-0.828,0.077-1.546,0.231-2.154c0.154-0.608,0.377-1.11,0.667-1.507c0.291-0.396,0.642-0.689,1.051-0.879
			c0.41-0.189,0.866-0.284,1.368-0.284c0.511,0,0.967,0.095,1.368,0.284c0.401,0.19,0.74,0.482,1.018,0.879s0.491,0.899,0.642,1.507
			c0.149,0.608,0.225,1.326,0.225,2.154c0,0.828-0.075,1.544-0.225,2.148c-0.15,0.604-0.366,1.102-0.648,1.494
			c-0.281,0.392-0.627,0.683-1.037,0.872S983.212,1417.755,982.692,1417.755z M982.719,1417.041c0.449,0,0.828-0.093,1.137-0.278
			s0.56-0.451,0.754-0.8c0.193-0.348,0.332-0.775,0.416-1.282c0.084-0.507,0.125-1.082,0.125-1.725c0-0.634-0.041-1.205-0.125-1.712
			c-0.084-0.507-0.223-0.936-0.416-1.289c-0.194-0.352-0.445-0.623-0.754-0.813c-0.309-0.189-0.688-0.284-1.137-0.284
			s-0.83,0.095-1.144,0.284c-0.312,0.19-0.565,0.461-0.76,0.813c-0.193,0.353-0.332,0.782-0.416,1.289
			c-0.084,0.507-0.126,1.077-0.126,1.712c0,0.643,0.042,1.218,0.126,1.725c0.084,0.507,0.223,0.934,0.416,1.282
			c0.194,0.348,0.447,0.615,0.76,0.8C981.889,1416.948,982.27,1417.041,982.719,1417.041z"/>
		<path class="st43" d="M988.772,1416.287h0.991v1.229h-0.991V1416.287z"/>
		<path class="st43" d="M995.79,1417.755c-1.031,0-1.833-0.385-2.405-1.156c-0.573-0.771-0.859-1.985-0.859-3.641
			c0-0.828,0.077-1.546,0.231-2.154c0.154-0.608,0.377-1.11,0.667-1.507c0.291-0.396,0.642-0.689,1.051-0.879
			c0.41-0.189,0.866-0.284,1.368-0.284c0.511,0,0.967,0.095,1.368,0.284c0.401,0.19,0.74,0.482,1.018,0.879s0.491,0.899,0.642,1.507
			c0.149,0.608,0.225,1.326,0.225,2.154c0,0.828-0.075,1.544-0.225,2.148c-0.15,0.604-0.366,1.102-0.648,1.494
			c-0.281,0.392-0.627,0.683-1.037,0.872S996.31,1417.755,995.79,1417.755z M995.816,1417.041c0.449,0,0.828-0.093,1.137-0.278
			s0.56-0.451,0.754-0.8c0.193-0.348,0.332-0.775,0.416-1.282c0.084-0.507,0.125-1.082,0.125-1.725c0-0.634-0.041-1.205-0.125-1.712
			c-0.084-0.507-0.223-0.936-0.416-1.289c-0.194-0.352-0.445-0.623-0.754-0.813c-0.309-0.189-0.688-0.284-1.137-0.284
			s-0.83,0.095-1.144,0.284c-0.312,0.19-0.565,0.461-0.76,0.813c-0.193,0.353-0.332,0.782-0.416,1.289
			c-0.084,0.507-0.126,1.077-0.126,1.712c0,0.643,0.042,1.218,0.126,1.725c0.084,0.507,0.223,0.934,0.416,1.282
			c0.194,0.348,0.447,0.615,0.76,0.8C994.986,1416.948,995.367,1417.041,995.816,1417.041z"/>
		<path class="st43" d="M1002.756,1415.362c0.062,0.3,0.146,0.555,0.251,0.767c0.105,0.212,0.249,0.386,0.43,0.522
			c0.181,0.137,0.396,0.238,0.647,0.304c0.251,0.066,0.553,0.099,0.905,0.099c0.67,0,1.194-0.196,1.573-0.588
			c0.379-0.392,0.568-1.002,0.568-1.831c0-0.317-0.038-0.615-0.112-0.892c-0.075-0.278-0.196-0.518-0.363-0.72
			c-0.168-0.203-0.386-0.361-0.654-0.476c-0.27-0.115-0.593-0.172-0.972-0.172c-0.458,0-0.859,0.068-1.203,0.205
			c-0.344,0.137-0.656,0.355-0.938,0.654h-0.688l0.384-4.851h4.811v0.727h-4.176l-0.291,3.344c0.158-0.123,0.314-0.231,0.469-0.324
			s0.317-0.17,0.489-0.231c0.172-0.062,0.359-0.108,0.562-0.139c0.203-0.031,0.437-0.046,0.701-0.046
			c0.493,0,0.914,0.077,1.262,0.231c0.349,0.154,0.635,0.364,0.859,0.628c0.225,0.264,0.39,0.571,0.495,0.919
			c0.106,0.348,0.159,0.72,0.159,1.117c0,0.511-0.068,0.963-0.205,1.355c-0.137,0.392-0.333,0.72-0.588,0.985
			c-0.256,0.264-0.564,0.465-0.926,0.601c-0.361,0.136-0.767,0.205-1.216,0.205c-0.916,0-1.619-0.205-2.107-0.615
			c-0.489-0.41-0.778-1.002-0.866-1.778H1002.756z"/>
		<path class="st43" d="M1014.097,1408.08h0.951l3.728,9.437h-0.872l-1.137-2.881h-4.441l-1.123,2.881h-0.847L1014.097,1408.08z
			 M1016.476,1413.895l-1.943-4.93l-1.916,4.93H1016.476z"/>
	</g>
	<line class="st42" x1="1001.5" y1="816" x2="1001.5" y2="1381"/>
	<line class="st42" x1="622.5" y1="817" x2="622.5" y2="1381"/>
	<line class="st42" x1="625.5" y1="1317" x2="625.5" y2="1381"/>
	<line class="st42" x1="563.5" y1="752" x2="563.5" y2="816"/>
	<line class="st42" x1="438.5" y1="752" x2="438.5" y2="816"/>
	<g>
		<path class="st43" d="M742.337,758.443l4.454-6.093h0.806v6.093h1.309l-0.146,0.648h-1.163v2.392h-0.767v-2.392h-4.493V758.443z
			 M746.83,758.443v-5.062l-3.661,5.062H746.83z"/>
		<path class="st43" d="M754.774,752.046h0.951l3.728,9.437h-0.872l-1.137-2.881h-4.441l-1.123,2.881h-0.847L754.774,752.046z
			 M757.153,757.862l-1.943-4.93l-1.916,4.93H757.153z"/>
	</g>
	<g>
		<path class="st43" d="M747.901,713.984c-0.089-0.255-0.184-0.471-0.284-0.648c-0.102-0.176-0.226-0.322-0.37-0.436
			c-0.146-0.114-0.32-0.196-0.522-0.245c-0.203-0.048-0.445-0.073-0.727-0.073c-0.361,0-0.694,0.064-0.998,0.192
			c-0.305,0.128-0.573,0.352-0.807,0.674c-0.233,0.322-0.421,0.758-0.562,1.308c-0.141,0.551-0.225,1.249-0.251,2.095
			c0.309-0.493,0.678-0.852,1.11-1.077c0.432-0.225,0.938-0.337,1.52-0.337c0.511,0,0.945,0.082,1.302,0.245
			c0.357,0.163,0.644,0.383,0.859,0.661c0.216,0.278,0.372,0.597,0.469,0.958c0.098,0.361,0.146,0.736,0.146,1.123
			c0,0.449-0.072,0.864-0.218,1.242c-0.146,0.379-0.351,0.703-0.614,0.971c-0.265,0.269-0.586,0.478-0.965,0.628
			c-0.379,0.15-0.798,0.225-1.256,0.225c-0.635,0-1.152-0.126-1.553-0.377c-0.401-0.251-0.717-0.577-0.945-0.978
			c-0.229-0.401-0.388-0.85-0.476-1.348c-0.089-0.498-0.133-0.993-0.133-1.487c0-1.092,0.098-1.991,0.291-2.696
			c0.193-0.705,0.447-1.26,0.76-1.665c0.312-0.405,0.672-0.685,1.077-0.839c0.405-0.154,0.819-0.231,1.243-0.231
			c0.802,0,1.396,0.172,1.784,0.515c0.388,0.344,0.656,0.819,0.806,1.427L747.901,713.984z M745.72,720.804
			c0.714,0,1.271-0.211,1.672-0.634c0.401-0.423,0.602-0.996,0.602-1.718c0-0.317-0.035-0.619-0.105-0.905
			c-0.07-0.286-0.185-0.537-0.344-0.753c-0.158-0.216-0.372-0.385-0.641-0.509c-0.27-0.123-0.602-0.185-0.998-0.185
			c-0.309,0-0.608,0.049-0.898,0.145c-0.291,0.097-0.547,0.247-0.767,0.449c-0.221,0.203-0.393,0.461-0.516,0.773
			c-0.124,0.313-0.177,0.681-0.159,1.104c0.009,0.282,0.064,0.555,0.165,0.82c0.102,0.264,0.24,0.502,0.417,0.714
			c0.176,0.211,0.396,0.381,0.661,0.509C745.072,720.741,745.376,720.804,745.72,720.804z"/>
		<path class="st43" d="M754.774,711.817h0.951l3.728,9.437h-0.872l-1.137-2.881h-4.441l-1.123,2.881h-0.847L754.774,711.817z
			 M757.153,717.632l-1.943-4.93l-1.916,4.93H757.153z"/>
	</g>
	<line class="st42" x1="813.5" y1="752" x2="813.5" y2="816"/>
	<line class="st42" x1="688.5" y1="752" x2="688.5" y2="816"/>
	<line class="st42" x1="906.5" y1="707" x2="906.5" y2="816"/>
	<line class="st42" x1="937.5" y1="707" x2="937.5" y2="816"/>
	<line class="st42" x1="1000.5" y1="707" x2="1000.5" y2="816"/>
	<line class="st42" x1="844.5" y1="816" x2="844.5" y2="707"/>
	<line class="st42" x1="1250.5" y1="707" x2="1250.5" y2="816"/>
	<line class="st42" x1="1187.5" y1="707" x2="1187.5" y2="816"/>
	<g>
		<g>
			<line class="st42" x1="407.5" y1="641" x2="407.5" y2="816"/>
			<line class="st42" x1="594.5" y1="816" x2="594.5" y2="707"/>
		</g>
		<line class="st42" x1="1468.5" y1="816" x2="1468.5" y2="641"/>
	</g>
	<g>
		<path class="st43" d="M1653.174,1048.764l-2.429-4.001l1.041-0.578l2.798,4.58v1.388h-15.982v-1.388H1653.174z"/>
		<path class="st43" d="M1651.323,1068.448c0.447-0.154,0.824-0.32,1.133-0.497c0.309-0.177,0.563-0.393,0.764-0.648
			c0.2-0.254,0.343-0.559,0.428-0.914c0.085-0.355,0.127-0.779,0.127-1.272c0-0.632-0.111-1.214-0.335-1.746
			c-0.224-0.532-0.617-1.002-1.18-1.411c-0.563-0.409-1.326-0.737-2.29-0.983c-0.964-0.247-2.186-0.393-3.666-0.439
			c0.863,0.54,1.492,1.187,1.885,1.943c0.394,0.755,0.59,1.642,0.59,2.66c0,0.894-0.143,1.654-0.428,2.278s-0.671,1.125-1.156,1.503
			c-0.485,0.378-1.045,0.651-1.677,0.821c-0.633,0.17-1.288,0.255-1.966,0.255c-0.787,0-1.512-0.127-2.175-0.382
			c-0.663-0.254-1.229-0.613-1.7-1.076c-0.47-0.463-0.836-1.026-1.099-1.688c-0.262-0.663-0.393-1.396-0.393-2.197
			c0-1.11,0.22-2.016,0.659-2.718c0.439-0.702,1.01-1.253,1.711-1.654c0.702-0.401,1.488-0.679,2.359-0.833
			c0.871-0.154,1.738-0.231,2.603-0.231c1.912,0,3.484,0.169,4.719,0.509c1.233,0.339,2.204,0.782,2.914,1.33
			c0.709,0.547,1.198,1.176,1.469,1.885c0.27,0.709,0.404,1.434,0.404,2.174c0,1.403-0.3,2.444-0.901,3.123
			c-0.602,0.678-1.435,1.149-2.498,1.411L1651.323,1068.448z M1639.388,1064.631c0,1.249,0.37,2.224,1.11,2.926
			c0.74,0.701,1.742,1.052,3.007,1.052c0.556,0,1.083-0.062,1.585-0.185c0.501-0.124,0.94-0.324,1.318-0.601
			c0.377-0.278,0.674-0.652,0.891-1.122c0.216-0.471,0.323-1.052,0.323-1.746c0-0.54-0.085-1.064-0.254-1.573
			c-0.17-0.509-0.433-0.956-0.787-1.342c-0.354-0.386-0.806-0.686-1.353-0.902c-0.548-0.216-1.191-0.309-1.932-0.278
			c-0.493,0.015-0.972,0.112-1.434,0.289c-0.463,0.177-0.879,0.42-1.249,0.729c-0.37,0.308-0.668,0.694-0.891,1.156
			C1639.5,1063.498,1639.388,1064.03,1639.388,1064.631z"/>
		<path class="st43" d="M1655.116,1080.475v1.665l-16.515,6.523v-1.527l5.042-1.989v-7.772l-5.042-1.966v-1.48L1655.116,1080.475z
			 M1644.939,1084.639l8.627-3.4l-8.627-3.354V1084.639z"/>
	</g>
	<g>
		<path class="st43" d="M915.796,651.274c0.077,0.524,0.2,0.987,0.37,1.388c0.17,0.401,0.413,0.74,0.729,1.018
			c0.316,0.278,0.721,0.486,1.215,0.625c0.493,0.139,1.103,0.208,1.827,0.208c1.295,0,2.255-0.316,2.88-0.948
			c0.624-0.632,0.937-1.527,0.937-2.683c0-0.601-0.089-1.11-0.266-1.527c-0.178-0.416-0.428-0.755-0.752-1.018
			c-0.324-0.262-0.705-0.451-1.145-0.567s-0.922-0.173-1.446-0.173h-1.942v-1.272h1.942c1.002,0,1.797-0.274,2.383-0.821
			c0.586-0.547,0.879-1.345,0.879-2.394c0-0.987-0.316-1.723-0.948-2.209c-0.633-0.486-1.504-0.729-2.614-0.729
			c-0.632,0-1.164,0.062-1.596,0.185c-0.432,0.124-0.798,0.305-1.099,0.544c-0.301,0.239-0.548,0.54-0.74,0.902
			c-0.193,0.362-0.366,0.783-0.521,1.261l-1.249-0.231c0.107-0.463,0.277-0.929,0.509-1.399c0.231-0.47,0.548-0.894,0.948-1.272
			c0.401-0.378,0.914-0.682,1.538-0.914c0.625-0.231,1.384-0.347,2.278-0.347c0.833,0,1.558,0.108,2.175,0.324
			c0.616,0.216,1.121,0.509,1.515,0.879c0.394,0.37,0.687,0.798,0.879,1.284c0.192,0.486,0.289,1.006,0.289,1.561
			c0,0.971-0.192,1.758-0.578,2.359s-0.979,1.103-1.781,1.503c1.819,0.709,2.729,2.043,2.729,4.001c0,0.709-0.112,1.365-0.335,1.966
			c-0.224,0.601-0.56,1.122-1.007,1.561s-0.998,0.783-1.653,1.029s-1.407,0.37-2.255,0.37c-1.049,0-1.916-0.139-2.603-0.416
			s-1.229-0.632-1.631-1.064c-0.4-0.432-0.686-0.914-0.855-1.446s-0.27-1.044-0.301-1.538H915.796z"/>
		<path class="st43" d="M930.253,650.002l7.794-10.663h1.411v10.663h2.29l-0.255,1.133h-2.035v4.187h-1.342v-4.187h-7.863V650.002z
			 M938.116,650.002v-8.859l-6.406,8.859H938.116z"/>
		<path class="st43" d="M952.018,638.807h1.665l6.523,16.515h-1.527l-1.989-5.042h-7.771l-1.966,5.042h-1.48L952.018,638.807z
			 M956.181,648.985l-3.399-8.628l-3.354,8.628H956.181z"/>
	</g>
	<g>
		<g>
			<path class="st43" d="M1566.106,855.057c-0.3,0.044-0.564,0.114-0.794,0.211c-0.229,0.097-0.423,0.236-0.581,0.416
				c-0.158,0.181-0.277,0.412-0.356,0.694c-0.08,0.282-0.119,0.63-0.119,1.044c0,0.74,0.181,1.289,0.542,1.646
				c0.36,0.357,0.872,0.535,1.533,0.535c0.343,0,0.634-0.051,0.872-0.152c0.237-0.101,0.432-0.245,0.581-0.43
				c0.15-0.185,0.258-0.403,0.324-0.654s0.099-0.527,0.099-0.826v-1.11h0.728v1.11c0,0.573,0.156,1.026,0.469,1.361
				c0.312,0.335,0.769,0.502,1.368,0.502c0.563,0,0.984-0.181,1.263-0.542c0.277-0.361,0.416-0.859,0.416-1.494
				c0-0.361-0.035-0.665-0.105-0.912c-0.071-0.247-0.175-0.456-0.311-0.628c-0.137-0.172-0.309-0.313-0.516-0.423
				c-0.207-0.11-0.447-0.209-0.721-0.297l0.133-0.714c0.264,0.062,0.53,0.159,0.799,0.291c0.269,0.132,0.512,0.313,0.728,0.542
				c0.216,0.229,0.39,0.522,0.521,0.879c0.133,0.357,0.198,0.791,0.198,1.302c0,0.476-0.062,0.89-0.185,1.242
				c-0.124,0.352-0.291,0.641-0.502,0.866c-0.212,0.225-0.456,0.392-0.734,0.502c-0.277,0.11-0.574,0.165-0.892,0.165
				c-0.556,0-1.005-0.11-1.349-0.33c-0.344-0.22-0.63-0.56-0.858-1.018c-0.405,1.04-1.168,1.56-2.287,1.56
				c-0.405,0-0.779-0.064-1.123-0.192c-0.344-0.128-0.642-0.319-0.893-0.575c-0.251-0.256-0.447-0.571-0.588-0.945
				s-0.212-0.804-0.212-1.289c0-0.599,0.08-1.095,0.238-1.487c0.158-0.392,0.361-0.703,0.608-0.932
				c0.246-0.229,0.521-0.392,0.825-0.489c0.305-0.097,0.598-0.154,0.88-0.172V855.057z"/>
			<path class="st43" d="M1573.23,866.609v0.952l-9.438,3.727v-0.872l2.881-1.137v-4.441l-2.881-1.123v-0.846L1573.23,866.609z
				 M1567.414,868.988l4.931-1.943l-4.931-1.917V868.988z"/>
		</g>
	</g>
	<g>
		<g>
			<path class="st43" d="M1571.062,1000.909c0.255-0.088,0.471-0.183,0.647-0.284c0.176-0.101,0.321-0.225,0.437-0.37
				c0.114-0.145,0.195-0.32,0.244-0.522c0.049-0.203,0.073-0.445,0.073-0.727c0-0.361-0.064-0.694-0.192-0.998
				s-0.353-0.573-0.674-0.806c-0.321-0.234-0.758-0.421-1.309-0.562c-0.551-0.141-1.249-0.225-2.095-0.251
				c0.493,0.308,0.853,0.678,1.077,1.11c0.225,0.432,0.337,0.938,0.337,1.52c0,0.511-0.081,0.945-0.244,1.302
				s-0.384,0.643-0.661,0.859c-0.277,0.216-0.597,0.372-0.958,0.469c-0.361,0.097-0.736,0.145-1.124,0.145
				c-0.449,0-0.863-0.073-1.242-0.218s-0.703-0.35-0.972-0.615c-0.269-0.264-0.478-0.586-0.628-0.965
				c-0.149-0.379-0.225-0.797-0.225-1.256c0-0.634,0.126-1.152,0.377-1.553c0.251-0.401,0.577-0.716,0.979-0.945
				c0.4-0.229,0.85-0.388,1.348-0.476c0.498-0.088,0.993-0.132,1.487-0.132c1.092,0,1.991,0.097,2.696,0.291
				c0.705,0.194,1.26,0.447,1.665,0.76c0.405,0.313,0.686,0.672,0.84,1.077c0.153,0.405,0.23,0.819,0.23,1.242
				c0,0.802-0.172,1.396-0.515,1.784c-0.344,0.388-0.82,0.656-1.428,0.806L1571.062,1000.909z M1564.242,998.728
				c0,0.714,0.212,1.271,0.635,1.672c0.423,0.401,0.995,0.601,1.718,0.601c0.317,0,0.619-0.035,0.905-0.106
				c0.286-0.071,0.538-0.185,0.754-0.344s0.385-0.372,0.509-0.641c0.123-0.269,0.185-0.601,0.185-0.998
				c0-0.309-0.048-0.608-0.145-0.899c-0.098-0.291-0.247-0.546-0.45-0.767c-0.202-0.22-0.46-0.392-0.772-0.516
				c-0.313-0.123-0.681-0.176-1.104-0.159c-0.281,0.009-0.555,0.064-0.819,0.165c-0.264,0.101-0.502,0.24-0.714,0.416
				c-0.211,0.176-0.381,0.397-0.509,0.661C1564.307,998.081,1564.242,998.385,1564.242,998.728z"/>
			<path class="st43" d="M1573.23,1007.782v0.952l-9.438,3.727v-0.872l2.881-1.137v-4.441l-2.881-1.123v-0.846L1573.23,1007.782z
				 M1567.414,1010.161l4.931-1.943l-4.931-1.917V1010.161z"/>
		</g>
	</g>
	<line class="st42" x1="1656" y1="816.5" x2="1469" y2="816.5"/>
	<g>
		<line class="st42" x1="1578" y1="910.5" x2="407" y2="910.5"/>
		<line class="st42" x1="1578" y1="914.5" x2="1250" y2="914.5"/>
	</g>
	<g>
		<g>
			<path class="st43" d="M1563.793,1199.395c1.463,0.432,2.89,0.927,4.282,1.487c1.393,0.559,2.767,1.209,4.124,1.949v-5.247h0.727
				v6.093h-0.727c-1.349-0.723-2.719-1.37-4.11-1.943c-1.393-0.573-2.824-1.057-4.296-1.454V1199.395z"/>
			<path class="st43" d="M1573.23,1210.035v0.952l-9.438,3.727v-0.872l2.881-1.137v-4.441l-2.881-1.123v-0.846L1573.23,1210.035z
				 M1567.414,1212.414l4.931-1.943l-4.931-1.917V1212.414z"/>
		</g>
	</g>
	<line class="st42" x1="1469" y1="1315.5" x2="1656" y2="1315.5"/>
	<g>
		<g>
			<line class="st42" x1="1578" y1="1097.5" x2="407" y2="1097.5"/>
		</g>
		<g>
			<line class="st42" x1="1578" y1="1092.5" x2="907" y2="1092.5"/>
		</g>
	</g>
	<g>
		<g>
			<path class="st43" d="M302.744,1113.417v-0.952l9.438-3.727v0.872l-2.881,1.137v4.441l2.881,1.123v0.846L302.744,1113.417z
				 M308.561,1111.038l-4.931,1.943l4.931,1.917V1111.038z"/>
		</g>
	</g>
	<line class="st42" x1="298" y1="1128.5" x2="1469" y2="1128.5"/>
	<line class="st42" x1="298" y1="1097.5" x2="407" y2="1097.5"/>
</g>
</svg>
